# xmcd
#
# Track frame offsets:
#	150
#	13112
#	24125
#	39550
#	49262
#	64675
#	74812
#	85025
#	99687
#	112150
#	122612
#	136362
#	152350
#	162812
#	173337
#
# Disc length: 2453 seconds
#
# Revision: 1
# Processed by: cddbd v1.5.1PL0 Copyright (c) Steve Scherf et al.
# Submitted via: audiograbber 1.83.01
#
DISCID=bd09930f
DTITLE=Various Artist - Country Goldstücke CD 1
DYEAR=1900
DGENRE=Country
TTITLE0=Faron Young - It's For in the Morning
TTITLE1=Billy Walker - When A Man Loves A Woman
TTITLE2=Red Simpson - I'm a Truck
TTITLE3=Skeeter Davis - I can't believe its over
TTITLE4=Melba Montgomery - No Charge
TTITLE5=Bob Lumann - When you say Love
TTITLE6=Jimmy C. Newmann - A Fallen Star
TTITLE7=Jody Miller - Baby I'm Your's
TTITLE8=Jack and Misty - Tennessee Birdwalk
TTITLE9=Tommy Cash - Rise and Shine
TTITLE10=Nat Stuckey - Take Time to love aher
TTITLE11=Guy Drake - Welfare Cadillac
TTITLE12=Hank Locklin - Let me be the one
TTITLE13=Hank Thompson - Wake up Irene
TTITLE14=Faron Young - I miss you already
EXTD=ID3G: 2
EXTT0=
EXTT1=
EXTT2=
EXTT3=
EXTT4=
EXTT5=
EXTT6=
EXTT7=
EXTT8=
EXTT9=
EXTT10=
EXTT11=
EXTT12=
EXTT13=
EXTT14=
PLAYORDER=
